<svg width="16" height="16" viewBox="0 0 16 16" fill="none" xmlns="http://www.w3.org/2000/svg">
<path d="M8.92473 8.00014L13.6122 2.41264C13.6908 2.31978 13.6247 2.17871 13.5033 2.17871H12.0783C11.9944 2.17871 11.914 2.21621 11.8587 2.2805L7.99258 6.88943L4.12651 2.2805C4.07294 2.21621 3.99258 2.17871 3.90687 2.17871H2.48187C2.36044 2.17871 2.29437 2.31978 2.37294 2.41264L7.06044 8.00014L2.37294 13.5876C2.35534 13.6083 2.34405 13.6337 2.3404 13.6606C2.33676 13.6875 2.34092 13.7149 2.35239 13.7395C2.36386 13.7642 2.38216 13.785 2.40511 13.7995C2.42806 13.8141 2.4547 13.8217 2.48187 13.8216H3.90687C3.9908 13.8216 4.07115 13.7841 4.12651 13.7198L7.99258 9.11085L11.8587 13.7198C11.9122 13.7841 11.9926 13.8216 12.0783 13.8216H13.5033C13.6247 13.8216 13.6908 13.6805 13.6122 13.5876L8.92473 8.00014Z" fill="#D4D4D4"/>
</svg>
