<svg width="32" height="32" viewBox="0 0 32 32" fill="none" xmlns="http://www.w3.org/2000/svg">
<g clip-path="url(#clip0_223_968)">
<path d="M16 0C7.16429 0 0 7.16429 0 16C0 24.8357 7.16429 32 16 32C24.8357 32 32 24.8357 32 16C32 7.16429 24.8357 0 16 0ZM16 29.2857C8.66429 29.2857 2.71429 23.3357 2.71429 16C2.71429 8.66429 8.66429 2.71429 16 2.71429C23.3357 2.71429 29.2857 8.66429 29.2857 16C29.2857 23.3357 23.3357 29.2857 16 29.2857Z" fill="#DC2626"/>
<path d="M16.0001 2.71436C8.66436 2.71436 2.71436 8.66436 2.71436 16.0001C2.71436 23.3358 8.66436 29.2858 16.0001 29.2858C23.3358 29.2858 29.2858 23.3358 29.2858 16.0001C29.2858 8.66436 23.3358 2.71436 16.0001 2.71436ZM22.1358 21.5394C22.1786 21.5929 22.2036 21.6572 22.2036 21.7251C22.2036 21.8858 22.0751 22.0108 21.9179 22.0108L19.5608 22.0001L16.0144 17.7715L12.4679 22.0036L10.1072 22.0144C9.95007 22.0144 9.8215 21.8858 9.8215 21.7286C9.8215 21.6608 9.8465 21.5965 9.88936 21.5429L14.5358 16.0108L9.88936 10.4751C9.8462 10.4227 9.82225 10.3572 9.8215 10.2894C9.8215 10.1286 9.95007 10.0036 10.1072 10.0036L12.4679 10.0144L16.0144 14.2429L19.5644 10.0108L21.9215 10.0001C22.0786 10.0001 22.2072 10.1286 22.2072 10.2858C22.2072 10.3536 22.1858 10.4215 22.1429 10.4715L17.4965 16.0072L22.1358 21.5394Z" fill="#FEE2E2"/>
<path d="M22.207 10.2857C22.207 10.1286 22.0784 10 21.9213 10L19.5641 10.0107L16.0141 14.2429L12.4677 10.0143L10.107 10.0036C9.94986 10.0036 9.82129 10.1286 9.82129 10.2893C9.82129 10.3571 9.84629 10.4214 9.88915 10.475L14.5356 16.0107L9.88915 21.5429C9.84599 21.5952 9.82204 21.6607 9.82129 21.7286C9.82129 21.8857 9.94986 22.0143 10.107 22.0143L12.4677 22.0036L16.0141 17.7714L19.5606 22L21.9177 22.0107C22.0749 22.0107 22.2034 21.8857 22.2034 21.725C22.2034 21.6571 22.1784 21.5929 22.1356 21.5393L17.4963 16.0071L22.1427 10.4714C22.1856 10.4214 22.207 10.3536 22.207 10.2857Z" fill="#DC2626"/>
</g>
<defs>
<clipPath id="clip0_223_968">
<rect width="32" height="32" fill="white"/>
</clipPath>
</defs>
</svg>
