<svg width="32" height="32" viewBox="0 0 32 32" fill="none" xmlns="http://www.w3.org/2000/svg">
<g clip-path="url(#clip0_223_1037)">
<path d="M16 0C7.16429 0 0 7.16429 0 16C0 24.8357 7.16429 32 16 32C24.8357 32 32 24.8357 32 16C32 7.16429 24.8357 0 16 0ZM16 29.2857C8.66429 29.2857 2.71429 23.3357 2.71429 16C2.71429 8.66429 8.66429 2.71429 16 2.71429C23.3357 2.71429 29.2857 8.66429 29.2857 16C29.2857 23.3357 23.3357 29.2857 16 29.2857Z" fill="#404040"/>
<path d="M16.0001 2.71436C8.66436 2.71436 2.71436 8.66436 2.71436 16.0001C2.71436 23.3358 8.66436 29.2858 16.0001 29.2858C23.3358 29.2858 29.2858 23.3358 29.2858 16.0001C29.2858 8.66436 23.3358 2.71436 16.0001 2.71436ZM22.3036 20.9179L21.2822 22.3108C21.26 22.3411 21.232 22.3668 21.1999 22.3862C21.1677 22.4057 21.132 22.4186 21.0948 22.4243C21.0577 22.4299 21.0197 22.4282 20.9833 22.4191C20.9468 22.41 20.9124 22.3939 20.8822 22.3715L14.9751 18.0644C14.9383 18.0379 14.9084 18.003 14.8878 17.9626C14.8673 17.9223 14.8568 17.8775 14.8572 17.8322V8.00007C14.8572 7.84293 14.9858 7.71436 15.1429 7.71436H16.8608C17.0179 7.71436 17.1465 7.84293 17.1465 8.00007V16.8394L22.2394 20.5215C22.3679 20.6108 22.3965 20.7894 22.3036 20.9179Z" fill="#E5E5E5"/>
<path d="M22.2391 20.5215L17.1462 16.8394V8.00007C17.1462 7.84293 17.0176 7.71436 16.8605 7.71436H15.1426C14.9855 7.71436 14.8569 7.84293 14.8569 8.00007V17.8322C14.8569 17.9251 14.8998 18.0108 14.9748 18.0644L20.8819 22.3715C21.0105 22.4644 21.1891 22.4394 21.2819 22.3108L22.3034 20.9179C22.3962 20.7894 22.3676 20.6108 22.2391 20.5215Z" fill="#404040"/>
</g>
<defs>
<clipPath id="clip0_223_1037">
<rect width="32" height="32" fill="white"/>
</clipPath>
</defs>
</svg>
