<svg width="32" height="32" viewBox="0 0 32 32" fill="none" xmlns="http://www.w3.org/2000/svg">
<g clip-path="url(#clip0_223_998)">
<path d="M16 0C7.16429 0 0 7.16429 0 16C0 24.8357 7.16429 32 16 32C24.8357 32 32 24.8357 32 16C32 7.16429 24.8357 0 16 0ZM16 29.2857C8.66429 29.2857 2.71429 23.3357 2.71429 16C2.71429 8.66429 8.66429 2.71429 16 2.71429C23.3357 2.71429 29.2857 8.66429 29.2857 16C29.2857 23.3357 23.3357 29.2857 16 29.2857Z" fill="#2563EB"/>
<path d="M16.0001 2.71436C8.66436 2.71436 2.71436 8.66436 2.71436 16.0001C2.71436 23.3358 8.66436 29.2858 16.0001 29.2858C23.3358 29.2858 29.2858 23.3358 29.2858 16.0001C29.2858 8.66436 23.3358 2.71436 16.0001 2.71436ZM17.1429 23.7144C17.1429 23.8715 17.0144 24.0001 16.8572 24.0001H15.1429C14.9858 24.0001 14.8572 23.8715 14.8572 23.7144V14.0001C14.8572 13.8429 14.9858 13.7144 15.1429 13.7144H16.8572C17.0144 13.7144 17.1429 13.8429 17.1429 14.0001V23.7144ZM16.0001 11.4286C15.5515 11.4195 15.1243 11.2348 14.8103 10.9144C14.4963 10.5939 14.3204 10.163 14.3204 9.71436C14.3204 9.26566 14.4963 8.83485 14.8103 8.51436C15.1243 8.19386 15.5515 8.00923 16.0001 8.00007C16.4487 8.00923 16.8758 8.19386 17.1898 8.51436C17.5038 8.83485 17.6797 9.26566 17.6797 9.71436C17.6797 10.163 17.5038 10.5939 17.1898 10.9144C16.8758 11.2348 16.4487 11.4195 16.0001 11.4286Z" fill="#DBEAFE"/>
<path d="M14.2856 9.71429C14.2856 10.1689 14.4663 10.605 14.7877 10.9265C15.1092 11.248 15.5453 11.4286 15.9999 11.4286C16.4546 11.4286 16.8906 11.248 17.2121 10.9265C17.5336 10.605 17.7142 10.1689 17.7142 9.71429C17.7142 9.25963 17.5336 8.82359 17.2121 8.5021C16.8906 8.18061 16.4546 8 15.9999 8C15.5453 8 15.1092 8.18061 14.7877 8.5021C14.4663 8.82359 14.2856 9.25963 14.2856 9.71429ZM16.8571 13.7143H15.1428C14.9856 13.7143 14.8571 13.8429 14.8571 14V23.7143C14.8571 23.8714 14.9856 24 15.1428 24H16.8571C17.0142 24 17.1428 23.8714 17.1428 23.7143V14C17.1428 13.8429 17.0142 13.7143 16.8571 13.7143Z" fill="#2563EB"/>
</g>
<defs>
<clipPath id="clip0_223_998">
<rect width="32" height="32" fill="white"/>
</clipPath>
</defs>
</svg>
