<svg width="32" height="32" viewBox="0 0 32 32" fill="none" xmlns="http://www.w3.org/2000/svg">
<g clip-path="url(#clip0_223_927)">
<path d="M16 0C7.16429 0 0 7.16429 0 16C0 24.8357 7.16429 32 16 32C24.8357 32 32 24.8357 32 16C32 7.16429 24.8357 0 16 0ZM16 29.2857C8.66429 29.2857 2.71429 23.3357 2.71429 16C2.71429 8.66429 8.66429 2.71429 16 2.71429C23.3357 2.71429 29.2857 8.66429 29.2857 16C29.2857 23.3357 23.3357 29.2857 16 29.2857Z" fill="#22C55E"/>
<path d="M16.0001 2.71436C8.66436 2.71436 2.71436 8.66436 2.71436 16.0001C2.71436 23.3358 8.66436 29.2858 16.0001 29.2858C23.3358 29.2858 29.2858 23.3358 29.2858 16.0001C29.2858 8.66436 23.3358 2.71436 16.0001 2.71436ZM22.9072 10.7751L15.3858 21.2036C15.2807 21.3504 15.1421 21.4699 14.9815 21.5524C14.821 21.6349 14.6431 21.6779 14.4626 21.6779C14.2821 21.6779 14.1042 21.6349 13.9436 21.5524C13.7831 21.4699 13.6445 21.3504 13.5394 21.2036L9.08936 15.0322C8.95364 14.8429 9.08936 14.5786 9.3215 14.5786H10.9965C11.3644 14.5786 11.7072 14.7572 11.9215 15.0536L14.4644 18.5822L20.0786 10.7965C20.2929 10.4965 20.6394 10.3215 21.0036 10.3215H22.6786C22.9108 10.3215 23.0465 10.5858 22.9072 10.7751Z" fill="#DCFCE7"/>
<path d="M22.6785 10.3213H21.0035C20.6392 10.3213 20.2928 10.4963 20.0785 10.7963L14.4642 18.582L11.9213 15.0534C11.707 14.757 11.3642 14.5784 10.9963 14.5784H9.32132C9.08918 14.5784 8.95347 14.8427 9.08918 15.032L13.5392 21.2034C13.6443 21.3502 13.7829 21.4697 13.9434 21.5522C14.104 21.6347 14.2819 21.6777 14.4624 21.6777C14.6429 21.6777 14.8208 21.6347 14.9813 21.5522C15.1419 21.4697 15.2805 21.3502 15.3856 21.2034L22.907 10.7749C23.0463 10.5856 22.9106 10.3213 22.6785 10.3213Z" fill="#22C55E"/>
</g>
<defs>
<clipPath id="clip0_223_927">
<rect width="32" height="32" fill="white"/>
</clipPath>
</defs>
</svg>
