<svg width="32" height="32" viewBox="0 0 32 32" fill="none" xmlns="http://www.w3.org/2000/svg">
<g clip-path="url(#clip0_223_1002)">
<path d="M31.8464 28.2857L16.9892 2.57143C16.7678 2.18929 16.3856 2 15.9999 2C15.6142 2 15.2285 2.18929 15.0106 2.57143L0.1535 28.2857C-0.285786 29.05 0.264214 30 1.14279 30H30.8571C31.7356 30 32.2856 29.05 31.8464 28.2857ZM3.86421 27.2893L15.9999 6.28214L28.1356 27.2893H3.86421Z" fill="#F59E0B"/>
<path d="M3.86426 27.2894H28.1357L16 6.28223L3.86426 27.2894ZM17.7143 23.4287C17.7051 23.8773 17.5205 24.3044 17.2 24.6184C16.8795 24.9324 16.4487 25.1083 16 25.1083C15.5513 25.1083 15.1205 24.9324 14.8 24.6184C14.4795 24.3044 14.2948 23.8773 14.2857 23.4287C14.2948 22.9801 14.4795 22.5529 14.8 22.2389C15.1205 21.9249 15.5513 21.749 16 21.749C16.4487 21.749 16.8795 21.9249 17.2 22.2389C17.5205 22.5529 17.7051 22.9801 17.7143 23.4287ZM17.1428 12.5715V19.1429C17.1428 19.3001 17.0143 19.4287 16.8571 19.4287H15.1428C14.9857 19.4287 14.8571 19.3001 14.8571 19.1429V12.5715C14.8571 12.4144 14.9857 12.2858 15.1428 12.2858H16.8571C17.0143 12.2858 17.1428 12.4144 17.1428 12.5715Z" fill="#FEF3C7"/>
<path d="M14.2856 23.4285C14.2856 23.8832 14.4663 24.3192 14.7877 24.6407C15.1092 24.9622 15.5453 25.1428 15.9999 25.1428C16.4546 25.1428 16.8906 24.9622 17.2121 24.6407C17.5336 24.3192 17.7142 23.8832 17.7142 23.4285C17.7142 22.9738 17.5336 22.5378 17.2121 22.2163C16.8906 21.8948 16.4546 21.7142 15.9999 21.7142C15.5453 21.7142 15.1092 21.8948 14.7877 22.2163C14.4663 22.5378 14.2856 22.9738 14.2856 23.4285ZM14.8571 12.5714V19.1428C14.8571 19.2999 14.9856 19.4285 15.1428 19.4285H16.8571C17.0142 19.4285 17.1428 19.2999 17.1428 19.1428V12.5714C17.1428 12.4142 17.0142 12.2856 16.8571 12.2856H15.1428C14.9856 12.2856 14.8571 12.4142 14.8571 12.5714Z" fill="#F59E0B"/>
</g>
<defs>
<clipPath id="clip0_223_1002">
<rect width="32" height="32" fill="white"/>
</clipPath>
</defs>
</svg>
